<?xml version="1.0" encoding="UTF-8"?>
<svg width="1500px" height="450px" viewBox="0 0 1500 450" version="1.1" xmlns="http://www.w3.org/2000/svg" xmlns:xlink="http://www.w3.org/1999/xlink">
    <!-- Generator: Sketch 52.6 (67491) - http://www.bohemiancoding.com/sketch -->
    <title>Group</title>
    <desc>Created with Sketch.</desc>
    <g id="Page-1" stroke="none" stroke-width="1" fill="none" fill-rule="evenodd">
        <g id="Artboard" transform="translate(-64.000000, -72.000000)">
            <g id="Group" transform="translate(64.000000, 72.000000)">
                <path d="M310.591124,144.98972 C336.947798,172.904876 351.8807,209.972292 351.8807,248.674585 C351.8807,331.95149 284.127495,399.694509 200.850591,399.694509 C117.578779,399.694509 49.8204807,331.95149 49.8204807,248.674585 C49.8204807,189.976871 84.2445892,136.947752 135.995346,112.246327 L199.348133,334.151699 L224.548679,256.344759 C224.691285,255.906755 238.936622,212.284549 265.01827,163.783175 C298.214947,102.029615 334.880009,61.2493458 371.040857,45.8326013 L351.513999,0 C321.979245,12.5951798 295.958713,35.1269531 273.630663,61.5192789 C250.584489,52.5911147 225.852506,47.8545529 201.018662,47.8392737 L212.574854,98.1334106 C222.873056,98.9279306 232.947163,100.725787 242.74115,103.552445 C227.589246,127.026437 214.953321,151.050482 204.945425,172.329359 L169.655493,48.6847245 L145.707844,55.4992617 C59.9200527,79.9460321 0,159.387849 0,248.674585 C0,359.413362 90.106721,449.520083 200.850591,449.520083 C311.59446,449.520083 401.696088,359.413362 401.696088,248.674585 C401.696088,195.187089 380.289885,144.027129 342.631672,106.465685 C333.963255,115.475338 322.615879,128.401568 310.591124,144.98972 Z" id="Fill-32" fill="#7EBA4A"></path>
                <path d="M464.306709,174.240667 C460.665159,174.240667 458.021852,171.459847 458.021852,168.368349 L458.021852,143.020104 C458.021852,139.928606 460.665159,137.147786 464.306709,137.147786 L608.9501,137.147786 C612.59165,137.147786 615.24005,139.928606 615.24005,143.020104 L615.24005,168.368349 C615.24005,171.459847 612.59165,174.240667 608.9501,174.240667 L558.309634,174.240667 L558.309634,347.659944 C558.309634,350.751442 555.330184,353.537355 552.024777,353.537355 L521.237125,353.537355 C517.931718,353.537355 514.947175,350.751442 514.947175,347.659944 L514.947175,174.240667 L464.306709,174.240667 Z" id="Fill-33" fill="#343838"></path>
                <path d="M645.445294,137.147786 L676.227853,137.147786 C679.538353,137.147786 682.51271,139.928606 682.51271,143.020104 L682.51271,347.659944 C682.51271,350.751442 679.538353,353.537355 676.227853,353.537355 L645.445294,353.537355 C642.134794,353.537355 639.160437,350.751442 639.160437,347.659944 L639.160437,143.020104 C639.160437,139.928606 642.134794,137.147786 645.445294,137.147786 Z" id="Fill-34" fill="#343838"></path>
                <path d="M764.827345,134.560092 L770.119052,134.560092 C772.767452,134.560092 774.753752,135.792617 775.751995,137.65159 L848.567719,283.558064 C849.229819,283.558064 849.229819,283.558064 849.560869,283.558064 L922.38678,137.65159 C923.369743,135.792617 925.030087,134.560092 928.004444,134.560092 L933.296151,134.560092 C936.937701,134.560092 938.924001,136.72465 939.265237,139.194792 L978.318953,346.92613 C979.301917,351.255246 976.65861,354.041159 972.360053,354.041159 L942.239594,354.041159 C939.265237,354.041159 936.606651,351.56083 935.949644,349.401366 L916.422786,232.240219 C916.086643,232.240219 915.434729,232.240219 915.434729,232.240219 L857.500977,353.730481 C856.84397,355.579268 854.852576,357.127564 851.878219,357.127564 L845.919319,357.127564 C842.944962,357.127564 841.284619,355.579268 840.301655,353.730481 L781.710895,232.240219 C781.710895,232.240219 781.043702,232.240219 780.712652,232.240219 L761.516845,349.401366 C761.185795,351.56083 758.542488,354.041159 755.563037,354.041159 L725.768536,354.041159 C721.469979,354.041159 718.821579,351.255246 719.478586,346.92613 L758.868444,139.194792 C759.199494,136.72465 761.185795,134.560092 764.827345,134.560092 Z" id="Fill-35" fill="#343838"></path>
                <path d="M1303.50937,146.111602 C1300.86607,142.093164 1303.50937,137.147786 1308.81127,137.147786 L1342.56309,137.147786 C1345.21149,137.147786 1346.87183,138.690988 1347.86498,139.928606 L1400.8228,211.027963 L1453.78062,139.928606 C1454.78395,138.690988 1456.43411,137.147786 1459.07742,137.147786 L1493.17047,137.147786 C1498.46727,137.147786 1501.11567,142.093164 1498.46727,146.111602 L1422.00491,249.047784 L1422.00491,347.659944 C1422.00491,350.751442 1419.02546,353.537355 1415.72005,353.537355 L1385.26854,353.537355 C1381.62699,353.537355 1378.98368,350.751442 1378.98368,347.659944 L1378.98368,249.353369 L1303.50937,146.111602 Z" id="Fill-36" fill="#343838"></path>
                <path d="M1126.52564,316.434288 L1057.40749,316.434288 L1057.40749,262.340716 L1139.16665,262.340716 C1142.47715,262.340716 1145.45151,259.870573 1145.45151,256.468398 L1145.45151,230.809475 C1145.45151,227.717977 1142.47715,224.937157 1139.16665,224.937157 L1057.40749,224.937157 L1057.40749,174.240667 L1155.38301,174.240667 C1159.02456,174.240667 1161.66787,171.459847 1161.66787,168.368349 L1161.66787,143.020104 C1161.66787,139.928606 1159.02456,137.147786 1155.38301,137.147786 L1020.67112,137.147786 C1017.02448,137.147786 1014.37608,139.928606 1014.37608,143.020104 L1014.37608,347.659944 C1014.37608,350.751442 1017.02448,353.537355 1020.67112,353.537355 L1128.68001,353.537355 C1125.30839,347.247405 1123.36284,340.168028 1123.36284,332.655739 C1123.36284,326.946399 1124.51387,321.496807 1126.52564,316.434288 Z" id="Fill-37" fill="#343838"></path>
                <path d="M1243.72146,316.434288 L1243.72146,143.020104 C1243.72146,139.928606 1240.73692,137.147786 1237.42132,137.147786 L1206.98,137.147786 C1203.33336,137.147786 1200.69005,139.928606 1200.69005,143.020104 L1200.69005,294.253937 C1213.73852,302.672794 1222.30507,316.7195 1222.30507,332.655739 C1222.30507,340.168028 1220.35442,347.247405 1216.98281,353.537355 L1328.12394,353.537355 C1331.76039,353.537355 1334.40879,350.751442 1334.40879,347.659944 L1334.40879,322.311699 C1334.40879,319.220201 1331.76039,316.434288 1328.12394,316.434288 L1243.72146,316.434288 Z" id="Fill-38" fill="#343838"></path>
                <path d="M1173.10466,355.410002 C1185.97486,355.410002 1196.41058,344.969194 1196.41058,332.104081 C1196.41058,319.233875 1185.97486,308.79816 1173.10466,308.79816 C1160.23445,308.79816 1149.79873,319.233875 1149.79873,332.104081 C1149.79873,344.969194 1160.23445,355.410002 1173.10466,355.410002 Z" id="Fill-39" fill="#343838"></path>
            </g>
        </g>
    </g>
</svg>